<svg xmlns="http://www.w3.org/2000/svg" viewBox="0 0 96 96" fill="none">
  <!-- Background circle -->
  <circle cx="48" cy="48" r="44" fill="#22c55e"/>

  <!-- Barcode scanner viewfinder -->
  <rect x="24" y="24" width="48" height="48" rx="4" fill="none" stroke="white" stroke-width="3"/>

  <!-- Corner brackets -->
  <path d="M24 36V28C24 25.7909 25.7909 24 28 24H36" stroke="white" stroke-width="4" stroke-linecap="round"/>
  <path d="M72 36V28C72 25.7909 70.2091 24 68 24H60" stroke="white" stroke-width="4" stroke-linecap="round"/>
  <path d="M24 60V68C24 70.2091 25.7909 72 28 72H36" stroke="white" stroke-width="4" stroke-linecap="round"/>
  <path d="M72 60V68C72 70.2091 70.2091 72 68 72H60" stroke="white" stroke-width="4" stroke-linecap="round"/>

  <!-- Scan line -->
  <line x1="30" y1="48" x2="66" y2="48" stroke="white" stroke-width="3" stroke-linecap="round"/>

  <!-- Barcode lines -->
  <rect x="34" y="38" width="3" height="20" fill="white" opacity="0.7"/>
  <rect x="40" y="38" width="2" height="20" fill="white" opacity="0.7"/>
  <rect x="45" y="38" width="4" height="20" fill="white" opacity="0.7"/>
  <rect x="52" y="38" width="2" height="20" fill="white" opacity="0.7"/>
  <rect x="57" y="38" width="3" height="20" fill="white" opacity="0.7"/>
</svg>
